<?xml version="1.0" encoding="utf-8"?>
<!-- Generator: Adobe Illustrator 18.0.0, SVG Export Plug-In . SVG Version: 6.00 Build 0)  -->
<!DOCTYPE svg PUBLIC "-//W3C//DTD SVG 1.0//EN" "http://www.w3.org/TR/2001/REC-SVG-20010904/DTD/svg10.dtd">
<svg version="1.0" id="Layer_1" xmlns="http://www.w3.org/2000/svg" xmlns:xlink="http://www.w3.org/1999/xlink" x="0px" y="0px"
	 viewBox="0 0 800 800" enable-background="new 0 0 800 800" xml:space="preserve">
<g>
	<path d="M340.9,787.5l-3-54.9h-44.6c-58.5,0-92.5-41-106.7-105.6l-12.4-55.8l-73.9-16l61.8-225c-6.4-21.7-9.7-44-9.7-66.3
		c0-138.7,122.8-251.5,273.7-251.5c150.9,0,272,112.8,273.6,251.5c0.4,34.9-12.9,82.7-30.3,136c-17,52.2-35.9,103.9-38.4,122.4
		l0.1,0.8l-15.5,200.5L340.9,787.5L340.9,787.5z M427.4,96.7c-103.8,0-188.2,84.5-188.2,188.2c0,103.7,84.4,188.2,188.2,188.2
		c103.8,0,188.2-84.4,188.2-188.2C615.6,181.2,531.2,96.7,427.4,96.7L427.4,96.7z"/>
</g>
</svg>
